<?xml version="1.0" encoding="UTF-8"?>
<svg version="1.1" viewBox="0 0 1378 2048" width="136" height="202" xmlns="http://www.w3.org/2000/svg">
<path transform="translate(667,7)" d="m0 0h67l28 5 33 3 27 6 22 4 36 12 29 10 29 13 23 11 23 13 19 12 19 13 18 13 14 10 12 11 10 9 11 12 17 17 9 11 11 13 13 18 14 21 12 20 13 26 14 37 11 35 2 8v11l4 11 4 10v18l10-2 15-6 14-4 7-1 27-1 20 1 19 4 20 8 10 6 9 8 7 10 8 15 1 4v18l-4 11-9 20-7 12-16 24-20 28-11 14-22 26-8 10-13 16-13 15-9 10-15 16-14 13-6 6-1 74-1 254-4 6-1 1-3 18-9 24-13 28-11 20-8 11-13 18-11 14-24 26-11 9-9 7-7 6-8 5-19 7-16 5-13-1-12-6-11-8-6-9-5-10-6-25-1-7v-22l-3-16-5-13-7-11-11-11-14-9-17-7-12-5-9-2-22 1h-29l-11 2-25 10-18 12-13 11-11 17-4 7-1 9 1 1v13l-5 8-4 5-1 2v10l2 13-1 9-9 17-5 10-8 10-10 8-15 8-12 5-17 3-4-1-3 2-11-5-5-1-12-5-12-9-12-11-6-8-10-21-6-20v-37l-5-16-9-14-13-15-13-11-19-12-14-7-21-6-24-5-8-1h-10l-15 2-17 5-20 7-11 8-8 9-10 17-5 22-1 7-1 40-5 15-9 19-7 9-9 6-10 4-15 1h-14l-11-4-18-10-13-9-12-11-16-16-9-11-8-10-14-22-9-16-8-16-9-21-12-35-4-13v-6l3-6v-8l-9-17v-300l-3-8-30-30-7-8-13-16-12-16-12-14-11-13-8-11-14-17-15-20-14-21-9-16-9-22-2-11v-11l4-16 6-10 11-12 11-8 13-6 13-4 18-3 21-1 19 1 19 3 15 5 16 5 1-4v-30l-1-10 7-7 1-13 7-21 19-49 13-25 12-20 10-16 8-10 8-12 8-10 11-11 9-11 15-16 13-12 12-9 11-9 13-11 18-12 20-13 36-20 16-8 31-14 41-14 24-7 14-4 14-1 15-4 10-3 10-1h23l9-3 13-2zm-160 351-15 5-10 6-9 8-7 11-5 17-1 5v10l4 17 4 10 9 13 8 5 11 3 8 1h17l14-2 10-4 8-8 6-10 5-13 2-9v-15l-3-12-8-16-7-9-8-6-16-6-5-1zm365 6-10 4-8 4-9 4-8 9-7 14-4 16-1 8 4 21 4 9 8 11 8 7 8 4 10 2h20l14-3 9-5 6-5 7-12 6-18 1-5v-14l-5-16-8-13-9-10-9-7-9-4-3-1zm-193 214-21 7-13 7-10 8-7 10-8 17-2 11 4 11 8 15 6 7 10 7 22 9 14 3h22l16-4 14-7 10-8 9-8 7-10 3-8 1-12-2-12-6-12-10-11-13-9-14-6-14-4-7-1z" fill="#FBFBFB"/>
<path transform="translate(156,1697)" d="m0 0 18 1 19 4 19 7 20 11 11 5 1-3 1-17 1-1 40 1 1 1v204l-1 19-4 20-7 16-7 11-12 14-10 9-15 10-14 6-21 6-17 3-12 1h-31l-17-2-15-4-16-6-13-7-10-9-2-6 1-26 2-3 5 1 18 12 12 6 16 6 16 3 12 1h21l17-2 16-5 14-7 14-11 7-9 4-10 2-8 2-28v-13l-1-4-7 1-11 6-15 9-14 6-15 4-18 2h-11l-20-2-21-6-14-6-11-7-14-12-10-12-8-13-5-11-5-17-4-21v-11l5-23 5-14 8-16 7-10 9-10 11-10 15-9 11-5 16-5 19-4zm0 34-16 4-16 7-13 9-12 11-7 11-4 8-3 10-2 25 1 15 4 13 6 10 11 12 10 8 12 7 17 6 15 2h9l14-2 16-5 13-8 11-9 10-11 6-12 4-16 3-28v-23l-4-10-11-12-9-7-16-8-20-6-5-1z" fill="#FBFBFB"/>
<path transform="translate(369,1604)" d="m0 0 42 2 3 2v48l-1 10-1 25v43l19-14 18-11 16-7 9-3 17-2 20 1 16 3 16 7 10 6 12 11 8 10 9 15 5 14 2 15v134l-9 1h-35l-1-1v-137l-2-10-6-12-9-10-8-6-8-4-10-2h-20l-16 4-16 8-11 7-12 11-7 8-4 10-2 12-1 13v52l2 37 1 17-3 2-41 1-3-1z" fill="#FBFBFB"/>
<path transform="translate(760,1698)" d="m0 0h39l18 3 18 6 16 8 13 8 11 9 7 7 13 17 8 16 4 11 3 18v24l-3 15-5 13-5 10-13 16-9 9-17 13-17 9-21 7-14 3-22 2h-17l-22-2-19-5-16-7-15-9-13-11-8-8-9-12-9-15-8-20-3-15v-17l4-17 5-13 8-15 12-16 7-7 13-10 14-9 14-7 19-6zm8 33-18 4-16 6-13 8-10 8-8 9-7 11-4 11-2 12v23l4 15 7 13 11 13 14 11 16 8 13 4 6 1h28l20-4 14-5 12-7 9-7 8-8 8-13 5-13 2-11v-21l-4-16-6-12-8-11-8-8-14-9-16-7-14-4-6-1z" fill="#FBFBFB"/>
<path transform="translate(1039,1697)" d="m0 0h24l24 4 21 6 9 5 4 5 1 3v32l-5-1-17-8-27-9-9-2h-25l-10 4-11 8-7 8-4 9 1 9 7 8 10 7 11 5 23 7 24 7 18 8 12 8 7 7 7 11 4 12 1 13-3 10-7 12-12 13-13 10-10 5-19 6-21 3h-18l-21-2-23-6-18-6-10-5-1-4 2-10v-9l-2-10v-4l5 1 21 10 25 7 17 3h26l12-3 10-6 7-7 3-7v-13l-3-8-8-6-16-6-26-8-26-9-16-8-11-8-6-7-4-8-2-9v-23l2-9 5-10 11-12 9-7 16-8 20-6z" fill="#FBFBFB"/>
<path transform="translate(1245,1635)" d="m0 0h10l5 5v64h54l21 1-1 15-1 14-2 2-4 1h-32l-35-1 1 129 2 10 3 6 8 4 12 2h16l14-2 15-6 6 1 2 4v10l-3 8-4 6-7 6-9 4-19 3h-33l-13-3-11-7-10-9-6-8-4-10-2-13-1-94-1-25-2-14-1-2h-15l-12 1h-17l-1-5 6-8 14-10 12-9 7-7 12-17 8-15 9-22 4-6z" fill="#FBFBFB"/>
<path transform="translate(584,1967)" d="m0 0h22l9 3 6 5 5 9 2 11-1 5h-2v2h2l1 6 4 10v7l-4 8-11 11-5 4h-40l-4-2 1 2h-5l-4-28v-31l2-13 5-5 10-3zm2 8-7 4-4 5-2 12 2 5 16-1h23l10 4v-2l-6-3-9-17-7-6-2-1zm38 29m-38 6-11 3-1 1v10l3 8 5 5 4 2h11l10-4 7-6 3-10-2-6h-4l-10-3z" fill="#FBFBFB"/>
<path transform="translate(878,1967)" d="m0 0 4 1 1 2 1 19v46l-1 12-1 1h-11v-44l-1-7-4-2-12 12-6 7-2 1h-6l-6-4-8-8-12-9v28l-1 23-1 3h-13l-1-7-1-34v-39l6 1 11 8 21 21 5 3 4-1 14-12 14-14z" fill="#FBFBFB"/>
<path transform="translate(1301,1969)" d="m0 0h63l-1 8-50 1 1 21h44l2 1v7l-3 1-43 1 1 28h45l4 4v7h-62l-2-10v-64z" fill="#FBFBFB"/>
<path transform="translate(1212,1969)" d="m0 0h56l1 1v7l-1 1h-45l-1 2-1 18h20l23 1v9h-13l-28-1-1 7v23h45l2 5v6h-59l-2-5-1-11v-30l1-30 1-2z" fill="#FBFBFB"/>
<path transform="translate(1046,1968)" d="m0 0 6 1 6 9 9 17 9 16 14 28 2 9h-14l-11-22v-2h-34l-5 5-10 18-1 1h-13l3-9 23-45 12-22zm0 19-4 5-10 23v2l26 1 6-1 2 4-2-9-6-15-4-6-4-4z" fill="#FBFBFB"/>
<path transform="translate(950,1968)" d="m0 0h17l13 3 8 6 3 4-1 4-1 1h-6l-16-7-5-1h-7l-11 3-9 6-7 8-3 5-1 8 3 9 7 9 14 8 6 2h13l10-3 8-4h6l-1 7-9 10-3 2h-38l-13-12-5-4-9-13-3-6v-10l4-10 9-10 10-9 11-5z" fill="#FBFBFB"/>
<path transform="translate(652,1967)" d="m0 0h8l6 3 18 26 5 4 6-4 10-13 8-11 4-4 6-1 4 1-1 7-7 11-9 11-9 10-4 6-1 3v17l1 10-1 4-2 1h-8l-3-7-2-11-1-15-6-10-12-15-10-15-1-7z" fill="#FBFBFB"/>
<path transform="translate(1117,1969)" d="m0 0h60l1 5-2 4h-44l-2 7v21l34 1 5 2-1 5-2 1h-36l-1 33h-12l-1-19v-54z" fill="#FBFBFB"/>
<path transform="translate(1047,1990)" d="m0 0" fill="#FBFBFB"/>
</svg>
