<?xml version="1.0" encoding="UTF-8"?>
<svg version="1.1" viewBox="0 0 2048 2048" width="750" height="750" xmlns="http://www.w3.org/2000/svg">
<path transform="translate(977,203)" d="m0 0h56l35 3 29 5 31 7 29 9 23 8 29 13 16 8 19 10 21 13 19 13 18 14 17 14 15 14 19 19 7 8 10 11 7 9 15 20 12 18 15 25 14 27 12 27 11 29 8 27 6 25 7 42 2 17v5l8-2 14-7 20-5 23-2 20 2 21 6 14 7 12 9 7 7 7 11 5 14 1 17-4 23-7 19-8 16-8 15-12 19-40 60-12 17-9 12-14 19-13 16-9 11-10 12-4 7v253l-1 50-3 36-5 29-6 24-9 25-11 25-10 20-12 20-11 16-11 14-12 14-16 16-10 8-11 7-13 7-17 4-13-2-9-5-7-7-8-14-4-10-3-12-3-27-2-33-2-4-2-8-6-12-9-10-5-5-8-7-14-8-15-6-17-3-17-1-19 2-12 3-19 8-11 7-13 10-9 10-8 14-6 18-3 17-2 30-5 22-5 16-8 16-8 10-9 8-12 7-12 4-13 2-17-3-16-7-9-7-11-11-8-13-5-12-4-14-6-56-4-15-8-18-8-12-9-10-19-14-15-9-10-5-17-5-15-3h-25l-21 5-12 5-11 8-5 4-9 12-7 16-4 16-2 43-4 23-3 13-8 16-6 9-7 6-8 4-4 1h-18l-8-2-16-8-13-10-8-6-12-11-7-8-6-8-11-15-11-18-12-23-8-18-9-25-8-30-4-18-3-18-3-35-1-105 1-175v-34l-3-6-7-7-8-10-11-14-13-16-13-19-11-15-12-17-12-18-9-13-12-19-12-20-8-14-9-19-7-22-2-16 2-17 6-16 7-10 9-9 15-9 15-6 12-3 9-1h23l17 2 16 5 14 8 3 1 2-9 3-26 4-23 8-35 14-43 10-23 12-25 10-19 15-25 12-17 9-12 13-16 9-11 7-7 7-8 13-13 8-7 14-13 13-10 16-12 24-16 20-12 24-13 27-12 36-13 33-9 23-5 24-4zm-144 375-15 4-8 6-7 8-6 13-3 13-1 7v22l2 12 5 13 7 10 8 8 12 5h24l11-4 6-4 7-6 7-11 4-11 2-14v-23l-3-17-7-14-8-8-14-7-8-2zm329 7-12 4-8 6-9 14-4 10-3 14v20l3 18 5 12 8 11 8 7 8 4 4 1h21l12-4 9-6 8-9 5-10 3-10 2-11v-25l-4-18-5-10-9-10-9-5-11-3zm-170 228-11 2-10 4-13 9-11 11-6 10-3 8v26l4 13 9 14 8 8 13 8 12 5 9 2h19l10-2 11-4 11-7 9-7 8-9 7-12 5-15v-8l-5-18-5-10-9-11-9-7-12-6-9-3-8-1z" fill="#FDFDFD"/>
<path transform="translate(1483,1602)" d="m0 0 21 1 13 17 13 18 14 19 26 36 4 6 2 1 2-4 10-14 13-18 12-16 13-18 14-19 6-8h50l-2 4-13 18-12 16-42 57-16 21-7 10 2 5 16 21 14 19 16 21 15 20 16 21 14 19 4 5v2h-51l-9-12-14-19-16-21-26-36-9-13-5 5-12 17-14 19-10 13-16 21-14 19-6 7h-51l3-5 10-13 16-21 14-19 10-13 9-12 16-21 14-19 6-8-2-4-10-14-15-20-28-38-15-20-14-19-9-12v-1z" fill="#FEFEFE"/>
<path transform="translate(577,1657)" d="m0 0h27l14 4 15 8 9 7 3 2 2-16 2-2h28l2 2v183l-2 15-6 18-10 16-9 10-14 10-17 8-18 4-6 1h-26l-16-4-14-6-16-11-3-5v-26l4-4 11 7 13 8 12 5 12 3h22l15-3 14-7 12-11 5-9 3-7 1-27 1-14-5 3-10 9-11 7-11 5-10 3h-25l-16-5-14-7-10-8-10-10-9-14-6-14-3-10-2-15v-17l3-20 5-15 9-17 14-15 12-9 16-7zm14 31-16 4-11 6-13 13-6 10-5 13-2 18 2 17 5 13 9 13 10 8 10 5 10 3 13 1 12-3 14-7 9-8 7-10 5-12 2-6v-51l-10-11-11-8-11-5-13-3z" fill="#FDFDFD"/>
<path transform="translate(737,1583)" d="m0 0h26l4 3v96l9-7 11-8 16-8 6-2h26l14 4 11 6 10 9 8 10 6 13 3 12 1 7v118l-1 1-10 1h-16l-5-2-1-111-3-14-6-11-7-6-10-4-4-1h-13l-13 4-11 7-17 16-3 5-1 113-3 3-6 1h-19l-4-2-1-2v-248z" fill="#FBFBFB"/>
<path transform="translate(1e3 1657)" d="m0 0h32l16 4 16 8 11 8 10 9 8 10 7 12 5 14 3 13v31l-3 12-4 11-5 10-7 10-9 10-13 10-15 8-21 6h-31l-15-4-17-8-12-9-8-7-10-13-9-17-4-14-2-13v-16l3-18 6-15 6-11 10-13 12-11 13-8 11-5zm7 31-14 4-9 5-10 8-9 11-6 13-2 8v26l3 10 6 12 8 10 10 8 10 5 10 3 17 1 12-2 14-6 10-8 8-9 7-14 3-12v-22l-3-12-7-14-9-10-7-6-12-6-13-3z" fill="#FDFDFD"/>
<path transform="translate(1194,1657)" d="m0 0h32l15 4 14 6 4 4 1 3v24l-2 5-6-2-17-8-15-4h-16l-11 4-8 7-3 6v8l4 8 7 6 14 6 28 10 11 6 10 9 5 8 4 11v20l-6 16-9 11-10 8-13 6-14 4h-27l-19-5-19-8-4-4v-29l1-1 8 1 10 5 10 4 15 4 15 1 9-2 14-7 2-5 2-3v-10l-4-7-16-8-24-9-12-5-12-7-8-9-5-11-2-7v-21l4-12 6-9 7-8 10-7 12-5z" fill="#FDFDFD"/>
<path transform="translate(1342,1610)" d="m0 0h12l3 2v47l49 1 2 1 1 8v16l-3 5-2 1h-46v102l2 9 6 7 6 2h15l9-2 7-3h5l1 1 1 10v10l-3 5-9 6-10 4-4 1h-24l-13-5-9-7-7-10-5-15-1-5v-110h-30l-2-1-2-5 1-5 8-6 9-7 9-10 8-13 8-17 6-15z" fill="#FDFDFD"/>
<path transform="translate(1194,1657)" d="m0 0h32l15 4 14 6 2 3-6-2-14-6-8-2h-24l-14 2-17 5-9 7-8 9-4 11-2 18 2 13 7 14 9 8 17 8 29 11 13 7 4 5 2 10-2 10-4 6-7 6-14 5h-19l-21-6-18-8-1 23 1 2 21 8 13 3 8 1h18l12-2 12-5 9-6 3-1v-2h2l2-4 6-8 4-8 2-11v-15l-5-10-8-9-13-8-15-6-18-6-14-7-7-7-2-5v-14l5-10 7-6 7-2h26l15 4 12 5 5 5 2 3-6-2-17-8-15-4h-16l-11 4-8 7-3 6v8l4 8 7 6 14 6 28 10 11 6 10 9 5 8 4 11v20l-6 16-9 11-10 8-13 6-14 4h-27l-19-5-19-8-4-4v-29l1-1 8 1 10 5 10 4 15 4 15 1 9-2 14-7 2-5 2-3v-10l-4-7-16-8-24-9-12-5-12-7-8-9-5-11-2-7v-21l4-12 6-9 7-8 10-7 12-5z" fill="#BFBEBC"/>
<path transform="translate(1e3 1657)" d="m0 0h32l16 4 16 8 11 8 10 9 8 10 7 12 5 14 3 13v31l-3 12-4 11-5 10-7 10-9 10-13 10-15 8-21 6h-31l-15-4-17-8-12-9-8-7-10-13-9-17-4-14-2-13v-16l2-13 2-3 6-15 8-14 2-1-2 5-8 16-5 18-1 9v15l2 10 7 19 9 16 7 9 7 7 14 9 13 6 11 3h35l11-3 8-3 10-5 11-8 12-12 7-10 8-16 3-9 2-12v-23l-4-17-8-17-8-11-7-8-8-7-10-7-15-6-13-3h-30l-16 4-10 4-7 1 3-3 13-6z" fill="#C0BFBD"/>
<path transform="translate(538,1674)" d="m0 0 2 1-11 11-1 4-9 16-5 13-3 14-1 11v12l2 18 5 16 9 16 9 11 7 7 17 9 12 4 7 1h28l12-5 5-2 4-4 8-6 12-13h2v32l-2 19-4 11-9 11-11 8-10 5-9 3-13 2h-16l-16-4-16-8-10-8-7-5v-2l5 2 15 10 13 6 9 3 6 1h22l15-3 14-7 12-11 5-9 3-7 1-27 1-14-5 3-10 9-11 7-11 5-10 3h-25l-16-5-14-7-10-8-10-10-9-14-6-14-3-10-2-15v-17l3-20 5-15 9-17 14-15z" fill="#BFBEBC"/>
<path transform="translate(1354,1611)" d="m0 0 3 1v47l49 1 2 1 1 8v16l-3 5-2 1h-46v102l2 9 6 7 6 2h15l9-2 7-3h5l1 1 1 10v10l-3 5-9 6-10 4-4 1h-24l-13-5-9-7-7-10-5-15-1-5v-110h-30l-2-1v-2h34l1 114 4 15 6 10 4 4 9 5 6 2 9 1h19l10-3 10-6 1-2 1-21-14 7-10 2h-9l-10-3-5-5-3-5-1-5v-110h51v-26h-51z" fill="#BFBEBC"/>
<path transform="translate(649,1660)" d="m0 0h28l2 2v183l-2 15-6 18-10 16-9 10-14 10-17 8-18 4-6 1h-26l-16-4-14-6-16-11-3-5v-26l3-3v29l8 5 16 9 17 6 7 1h22l16-3 15-5 13-7 9-7 4-2 2-4 2-3h2l2-5 6-10 6-15 2-8 1-12 1-30 1-149h-22l-6-1z" fill="#BFBEBC"/>
<path transform="translate(1016,1685)" d="m0 0h9l13 2 10 3 12 7 9 9 7 11 5 12 2 16v11l-3 16-5 12-7 9-11 11-16 8-11 3h-21l-15-5-12-7-7-6-8-11-5-10-3-9-1-11v-12l4-21 4-10 7-9 10-9 13-7 8-2zm-5 3-14 4-9 5-10 8-9 11-6 13-2 8v26l3 10 6 12 8 10 10 8 10 5 10 3 17 1 12-2 14-6 10-8 8-9 7-14 3-12v-22l-3-12-7-14-9-10-7-6-12-6-13-3z" fill="#BFBEBC"/>
<path transform="translate(589,1685)" d="m0 0h15l15 4 14 7 10 9 6 14-1 41-1 6h-1l-1-51-9-10-11-8-11-5-13-3h-10l-16 4-11 6-12 12-6 10-5 13-2 18 2 17 5 13 9 13 11 8 8 4 10 3 13 1 12-3 14-7 8-7 6-8 1 2-6 10-9 8-10 5-9 3-5 1h-14l-14-4-11-6-11-11-5-8-6-18-1-7v-18l1-13 3-10 6-11 9-10 9-7 8-4 7-2z" fill="#C0BFBD"/>
<path transform="translate(647,1808)" d="m0 0h2v32l-2 19-4 11-9 11-11 8-10 5-9 3-13 2h-16l-16-4-16-8-10-8-7-5v-2l5 2 15 10 13 6 9 3 6 1h22l15-3 14-7 12-11 5-9 3-7 1-27 1-14-5 3-10 9-11 7-4 1 3-4 3-1 4-4 8-6z" fill="#BFBEBC"/>
<path transform="translate(840,1659)" d="m0 0 9 2 11 6 10 9 8 10 6 13 3 12 1 7v118l-1 1-10 1h-16l-5-2v-107h1l1 32 1 74h27l-1-120-5-19-5-10-9-11-12-9-14-6z" fill="#BFBEBC"/>
<path transform="translate(806,1686)" d="m0 0h18l11 3 5 1 8 6 4 5-1 2-6-7h-3l-10-5-7-2h-13l-13 4-11 7-17 16-3 5-1 113-3 3-6 1h-19l-3-2 15-1h14v-116l7-8 9-8-3 1 2-4 12-9 10-4z" fill="#BFBEBC"/>
<path transform="translate(577,1657)" d="m0 0h27l14 4 15 8 9 7 3 2 2-16 2-1v23l-4-2-9-8-12-7-13-4-11-2h-20l-15 3-13 5-4 1v-3l16-7z" fill="#BFBEBC"/>
<path transform="translate(765,1585)" d="m0 0 2 1v96l9-7 11-8 2 1-13 10-10 10h-2z" fill="#BFBEBC"/>
<path transform="translate(806,1686)" d="m0 0h18l11 3 5 1 8 6 4 5-1 2-6-7h-3l-10-5-7-2h-13l-13 4-9 6-5 2-7 3 2-4 12-9 10-4z" fill="#C7C6C4"/>
<path transform="translate(538,1674)" d="m0 0 2 1-11 11-1 4-9 16-3 7-4 2 1-7 9-17 14-15z" fill="#BFBEBC"/>
<path transform="translate(964,1674)" d="m0 0 2 1-16 16-2 5-4 4-8 15-5 15h-1l1-9 7-16 7-11 8-10z" fill="#F0F0EF"/>
<path transform="translate(646,1716)" d="m0 0h2l1 3-1 41-1 6h-1z" fill="#BFBEBC"/>
<path transform="translate(813,1686)" d="m0 0h11l11 3 5 1 8 6 4 5-1 2-6-7h-3l-10-5-7-2-13-1z" fill="#BFBEBC"/>
<path transform="translate(964,1674)" d="m0 0 2 1-16 16-2 5-2-3 7-9z" fill="#D2D2D0"/>
<path transform="translate(523,1692)" d="m0 0v3l-8 15-2 5h-1l1-7 8-15z" fill="#F9F9F9"/>
<path transform="translate(538,1674)" d="m0 0 2 1-11 11-1 4-6 3 2-4 11-12z" fill="#DADAD9"/>
<path transform="translate(797,1692)" d="m0 0 2 1-9 6-5 2h-3l7-6z" fill="#DDDDDC"/>
<path transform="translate(792,1691)" d="m0 0m-1 1m-2 1h2v2l-8 6-5 3 2-4z" fill="#BFBEBC"/>
</svg>
